<svg xmlns="http://www.w3.org/2000/svg" width="409.298" height="169.481" viewBox="0 0 409.298 169.481"><defs><style>.a{fill:#3599a5;}.a,.b,.c,.d{fill-rule:evenodd;}.b{fill:#6fcdd6;}.c{fill:#2574a9;}.d,.f{fill:#16aedb;}.e{fill:#949494;}</style></defs><path class="a" d="M13.587,109.119,39.235,126.4a8.717,8.717,0,0,1,3.846,7.229v6.829a8.717,8.717,0,0,1-13.623,7.2L3.81,130.2a8.717,8.717,0,0,1-3.81-7.2v-6.646A8.716,8.716,0,0,1,13.587,109.119Z" transform="translate(0 -37.764)"/><path class="b" d="M13.587,102.965,39.235,85.683a8.716,8.716,0,0,0,3.846-7.228v-6.83a8.717,8.717,0,0,0-13.623-7.2L3.81,81.887A8.717,8.717,0,0,0,0,89.091V107.3a8.717,8.717,0,0,0,3.81,7.2l9.932,6.824s-5.559-5.1-5.559-10.655S13.587,102.965,13.587,102.965Z" transform="translate(0 -22.07)"/><path class="a" d="M593.7,102.965,568.052,85.683a8.715,8.715,0,0,1-3.845-7.228v-6.83a8.716,8.716,0,0,1,13.622-7.2l25.648,17.466a8.716,8.716,0,0,1,3.81,7.2v6.645A8.717,8.717,0,0,1,593.7,102.965Z" transform="translate(-197.989 -22.07)"/><path class="b" d="M593.7,100l-25.648,17.282a8.716,8.716,0,0,0-3.845,7.229v6.829a8.716,8.716,0,0,0,13.622,7.2l25.648-17.466a8.717,8.717,0,0,0,3.81-7.2V95.67a8.717,8.717,0,0,0-3.81-7.2l-9.933-6.824s5.559,5.1,5.559,10.654S593.7,100,593.7,100Z" transform="translate(-197.989 -28.649)"/><path class="c" d="M13.587,109.119,39.235,126.4a8.717,8.717,0,0,1,3.846,7.229v6.829a8.717,8.717,0,0,1-13.623,7.2L3.81,130.2a8.717,8.717,0,0,1-3.81-7.2v-6.646A8.716,8.716,0,0,1,13.587,109.119Z" transform="translate(0 -37.764)"/><path class="d" d="M13.587,102.965,39.235,85.683a8.716,8.716,0,0,0,3.846-7.228v-6.83a8.717,8.717,0,0,0-13.623-7.2L3.81,81.887A8.717,8.717,0,0,0,0,89.091V107.3a8.717,8.717,0,0,0,3.81,7.2l9.932,6.824s-5.559-5.1-5.559-10.655S13.587,102.965,13.587,102.965Z" transform="translate(0 -22.07)"/><path class="c" d="M593.7,102.965,568.052,85.683a8.715,8.715,0,0,1-3.845-7.228v-6.83a8.716,8.716,0,0,1,13.622-7.2l25.648,17.466a8.716,8.716,0,0,1,3.81,7.2v6.645A8.717,8.717,0,0,1,593.7,102.965Z" transform="translate(-197.989 -22.07)"/><path class="d" d="M593.7,100l-25.648,17.282a8.716,8.716,0,0,0-3.845,7.229v6.829a8.716,8.716,0,0,0,13.622,7.2l25.648-17.466a8.717,8.717,0,0,0,3.81-7.2V95.67a8.717,8.717,0,0,0-3.81-7.2l-9.933-6.824s5.559,5.1,5.559,10.654S593.7,100,593.7,100Z" transform="translate(-197.989 -28.649)"/><g transform="translate(108.128)"><path class="e" d="M169.27,31.665h-1.587a1.148,1.148,0,0,1-1.1-1.159V25.074a1.109,1.109,0,0,1,1.1-1.159h1.587V17.141a1.2,1.2,0,0,1,1.159-1.159h6.529a1.147,1.147,0,0,1,1.1,1.159v6.774h4.516a1.122,1.122,0,0,1,1.159,1.159v5.431a1.158,1.158,0,0,1-1.159,1.159h-4.516v7.628c0,1.342.915,1.464,1.647,1.464a11.928,11.928,0,0,0,2.38-.427,1.069,1.069,0,0,1,1.342.793l1.342,5.065a1.213,1.213,0,0,1-.793,1.4,31.428,31.428,0,0,1-7.384,1.342c-4.638,0-7.322-2.929-7.322-8.482Z" transform="translate(-166.585 -5.608)"/><path class="e" d="M201.556,1.159A1.2,1.2,0,0,1,202.716,0h6.773a1.2,1.2,0,0,1,1.159,1.159V19.1a12.981,12.981,0,0,1,5.675-1.4c7.689,0,11.656,6.041,11.656,12.814V41.556a1.2,1.2,0,0,1-1.159,1.159h-6.469a1.159,1.159,0,0,1-1.159-1.159V30.389c0-2.685-1.769-4.821-4.455-4.821-1.952,0-4.089,1.1-4.089,4.821V41.556c0,.793-.305,1.159-1.342,1.159h-6.59a1.2,1.2,0,0,1-1.16-1.159Z" transform="translate(-178.857)"/><path class="e" d="M261.192,27.264a11.406,11.406,0,0,1,11.594,11.472,14.976,14.976,0,0,1-.121,1.647,1.18,1.18,0,0,1-1.16,1.037H256.86a4.531,4.531,0,0,0,4.7,4.028,7.952,7.952,0,0,0,4.272-1.464,1.063,1.063,0,0,1,1.525,0l3.051,3.661a1.315,1.315,0,0,1-.061,1.769,12.417,12.417,0,0,1-9.031,3.478,12.815,12.815,0,0,1-.122-25.629Zm2.99,9.4a3.29,3.29,0,0,0-3.234-2.868,3.4,3.4,0,0,0-3.295,2.868Z" transform="translate(-195.352 -9.567)"/></g><g transform="translate(53.562 16.3)"><path class="f" d="M108.617,79.1a22.506,22.506,0,0,1,18.124,8.7c.846,1.087.483,2.417-.6,3.383l-7.25,6.887a2.2,2.2,0,0,1-2.658-.241,9.582,9.582,0,0,0-16.674,6.645,9.52,9.52,0,0,0,9.425,9.787c4.229,0,6.282-1.812,8.216-3.745a1.981,1.981,0,0,1,2.658-.484l7.25,6.283c1.087.966,1.692,2.174.846,3.383-4.47,6.766-10.753,10.149-19.453,10.149-13.774,0-25.978-10.874-25.978-25.373C82.519,90.212,94.843,79.1,108.617,79.1Z" transform="translate(-82.519 -44.057)"/><path class="f" d="M185.832,79.1a25.452,25.452,0,0,1,25.131,25.253c0,13.895-11.358,25.494-25.131,25.494s-25.133-11.6-25.133-25.494A25.452,25.452,0,0,1,185.832,79.1Zm0,35.16a9.724,9.724,0,0,0,9.545-9.908,9.546,9.546,0,1,0-19.09,0A9.724,9.724,0,0,0,185.832,114.256Z" transform="translate(-109.954 -44.057)"/><path class="f" d="M271.113,60.152a24.409,24.409,0,0,1,10.029,2.3V27.409a2.376,2.376,0,0,1,2.3-2.3h13.412a2.377,2.377,0,0,1,2.3,2.3V107.4a2.377,2.377,0,0,1-2.3,2.3H291.17c-1.208,0-2.054-1.087-2.537-2.417l-1.45-3.987a20.909,20.909,0,0,1-16.191,7.612c-13.654,0-23.923-11.478-23.923-25.373C247.069,68.489,258.185,60.152,271.113,60.152Zm2.3,35.16a9.6,9.6,0,0,0,9.666-9.908,9.469,9.469,0,0,0-9.666-9.666,9.57,9.57,0,0,0-9.787,9.666A9.7,9.7,0,0,0,273.409,95.313Z" transform="translate(-140.262 -25.113)"/><path class="f" d="M366.826,79.1c12.324,0,22.957,9.425,22.957,22.715a29.649,29.649,0,0,1-.241,3.262,2.337,2.337,0,0,1-2.3,2.054h-29a8.97,8.97,0,0,0,9.3,7.975,15.748,15.748,0,0,0,8.458-2.9,2.105,2.105,0,0,1,3.021,0l6.042,7.25a2.6,2.6,0,0,1-.121,3.5c-4.229,4.229-10.27,6.887-17.882,6.887a25.375,25.375,0,0,1-.241-50.747Zm5.92,18.607a6.514,6.514,0,0,0-6.4-5.679,6.733,6.733,0,0,0-6.525,5.679Z" transform="translate(-173.51 -44.057)"/><path class="f" d="M429.116,82.6a2.294,2.294,0,0,1,2.3-2.3h5.679a2.192,2.192,0,0,1,2.175,1.449l2.174,5.317c2.417-3.5,6.887-7.975,13.171-7.975,6.645,0,11.358,2.417,9.666,5.2l-5.92,9.666a2.057,2.057,0,0,1-2.658,1.087,8.7,8.7,0,0,0-2.9-.6c-3.625,0-6.4,2.779-6.4,6.887v25.011c0,1.45-.726,2.3-2.659,2.3H431.412a2.376,2.376,0,0,1-2.3-2.3Z" transform="translate(-204.146 -44.057)"/><path class="f" d="M489.164,123.319l4.229-8.337a2.078,2.078,0,0,1,2.537-.966s5.679,3.142,10.875,3.142a2.122,2.122,0,0,0,2.3-2.175c0-1.208-.725-2.9-6.887-5.075-9.424-3.262-13.532-8.7-13.532-16.191,0-8.1,5.8-14.62,18.849-14.62,7.612,0,13.412,2.054,16.07,3.746,1.087.724,1.934,1.812,1.208,3.02l-4.47,8.216a2.133,2.133,0,0,1-2.537.725s-5.558-2.779-10.27-2.779c-1.571,0-2.658.362-2.658,1.692,0,1.208,1.329,2.417,5.437,3.867,9.788,3.383,16.554,7.25,16.554,16.916,0,8.458-6.766,15.344-20.419,15.344-7.975,0-14.016-2.054-16.432-3.987C489.164,125.131,488.559,124.406,489.164,123.319Z" transform="translate(-225.048 -44.057)"/></g><g transform="translate(177.276 107.849)"><path class="e" d="M278,209.529a8.252,8.252,0,0,1-1.77-5.554,10.759,10.759,0,0,1,10.74-10.557H298.5a1.122,1.122,0,0,1,1.16,1.16v2.5a1.239,1.239,0,0,1-.671,1.037l-3.539,1.281a7.781,7.781,0,0,1,2.319,5.92c0,4.455-4.088,9.214-10.557,9.214H282.82c-1.281,0-2.013.671-2.013,1.647a1.751,1.751,0,0,0,1.953,1.648h7.322c5.736,0,10.5,3.478,10.5,8.909,0,5.858-4.089,10.618-13.73,10.618-9.458,0-12.753-4.455-12.753-8.3a6.909,6.909,0,0,1,3.722-5.858v-.182a7.041,7.041,0,0,1-4.7-6.774C273.118,211.421,278,209.529,278,209.529Zm8.848,20.686c3.051,0,4.394-1.221,4.394-2.868,0-1.281-1.1-2.563-4.394-2.563-2.2,0-4.394.793-4.394,2.563C282.454,229.056,283.919,230.216,286.848,230.216Zm.366-22.517a3.174,3.174,0,1,0,0-6.346,3.174,3.174,0,1,0,0,6.346Z" transform="translate(-273.118 -175.723)"/><path class="e" d="M320.029,195.519a1.159,1.159,0,0,1,1.159-1.159h6.529a1.159,1.159,0,0,1,1.159,1.159v11.289c0,2.5,1.4,4.7,3.906,4.7,2.38,0,3.661-2.258,3.661-4.333V195.519c0-.977.671-1.159,1.281-1.159h6.225a1.159,1.159,0,0,1,1.159,1.159v22.09a1.2,1.2,0,0,1-1.159,1.159h-2.868a1.337,1.337,0,0,1-1.159-.854l-.915-2.258c-1.587,1.525-3.539,3.722-8.238,3.722-7.261,0-10.74-5.858-10.74-12.814Z" transform="translate(-289.58 -176.053)"/><path class="e" d="M368.255,172.918a4.844,4.844,0,0,1,4.821-4.882,4.9,4.9,0,0,1,4.882,4.882,4.844,4.844,0,0,1-4.882,4.821A4.792,4.792,0,0,1,368.255,172.918Zm.366,13.364a1.158,1.158,0,0,1,1.159-1.159h6.713a1.158,1.158,0,0,1,1.159,1.159v22.09a1.2,1.2,0,0,1-1.159,1.159H369.78a1.2,1.2,0,0,1-1.159-1.159Z" transform="translate(-306.503 -166.816)"/><path class="e" d="M392.885,167.315a1.2,1.2,0,0,1,1.159-1.159h6.712a1.2,1.2,0,0,1,1.16,1.159v40.4a1.2,1.2,0,0,1-1.16,1.159h-6.712a1.2,1.2,0,0,1-1.159-1.159Z" transform="translate(-315.146 -166.156)"/><path class="e" d="M426.369,183.852a12.312,12.312,0,0,1,5.064,1.16v-17.7a1.2,1.2,0,0,1,1.16-1.159h6.773a1.2,1.2,0,0,1,1.159,1.159v40.4a1.2,1.2,0,0,1-1.159,1.159H436.5c-.61,0-1.037-.549-1.281-1.22l-.732-2.013a10.559,10.559,0,0,1-8.177,3.844c-6.9,0-12.082-5.8-12.082-12.814C414.225,188.063,419.839,183.852,426.369,183.852Zm1.159,17.758a4.848,4.848,0,0,0,4.882-5,4.782,4.782,0,0,0-4.882-4.882,4.833,4.833,0,0,0-4.942,4.882A4.9,4.9,0,0,0,427.527,201.61Z" transform="translate(-322.635 -166.156)"/></g></svg>