<?xml version="1.0" encoding="utf-8"?>
<!-- Generator: Adobe Illustrator 19.1.0, SVG Export Plug-In . SVG Version: 6.00 Build 0)  -->
<!DOCTYPE svg PUBLIC "-//W3C//DTD SVG 1.1//EN" "http://www.w3.org/Graphics/SVG/1.1/DTD/svg11.dtd">
<svg version="1.1" id="Layer_1" xmlns="http://www.w3.org/2000/svg" xmlns:xlink="http://www.w3.org/1999/xlink" x="0px" y="0px"
	 viewBox="0 0 181.3 182" enable-background="new 0 0 181.3 182" xml:space="preserve">
<path fill="#FFFFFF" d="M139.8,90.8c0,27.3-22.1,49.4-49.4,49.4V159c37.7,0,68.2-30.5,68.2-68.2H139.8z"/>
<path fill="#F7941E" d="M62.8,131.8c2.6,1.8,5.4,3.3,8.4,4.6C68.2,135.1,65.4,133.6,62.8,131.8z"/>
<path fill="#F7941E" d="M62.8,131.8c2.6,1.8,5.4,3.3,8.4,4.6C68.2,135.1,65.4,133.6,62.8,131.8z"/>
<path fill="#F7941E" d="M90.4,41.4V22.6c-37.7,0-68.2,30.5-68.2,68.2H41C41,63.5,63.1,41.4,90.4,41.4z"/>
<path fill="#F7941E" d="M41,90.8c0,3.4,0.3,6.7,1,10C41.3,97.5,41,94.2,41,90.8z"/>
<path fill="#F7941E" d="M41,90.8c0,3.4,0.3,6.7,1,10C41.3,97.5,41,94.2,41,90.8z"/>
<path fill="#F7941E" d="M59,128.9c-6.1-5-11-11.5-14.1-18.9C48,117.4,52.9,123.9,59,128.9z"/>
<path fill="#F7941E" d="M59,128.9c-6.1-5-11-11.5-14.1-18.9C48,117.4,52.9,123.9,59,128.9z"/>
<path fill="#FFFFFF" d="M71.2,136.3c-3-1.3-5.8-2.8-8.4-4.6c-1.3-0.9-2.6-1.8-3.8-2.8c-6.1-5-11-11.5-14.1-18.9
	c-1.3-3-2.2-6.1-2.9-9.3c-0.7-3.2-1-6.6-1-10H22.2c0,37.7,30.5,68.2,68.2,68.2v-18.8C83.6,140.2,77.1,138.8,71.2,136.3z"/>
<path fill="#F7941E" d="M90.4,4C42.5,4,3.6,42.9,3.6,90.8c0,47.9,38.9,86.8,86.8,86.8c47.9,0,86.8-38.9,86.8-86.8
	C177.2,42.9,138.3,4,90.4,4z M90.4,159v-18.8c27.3,0,49.4-22.1,49.4-49.4h18.8C158.6,128.5,128.1,159,90.4,159z"/>
<path fill="#F26522" d="M90.4,41.4V22.6c-37.7,0-68.2,30.5-68.2,68.2H41C41,63.5,63.1,41.4,90.4,41.4z"/>
<path fill="#BE1E2D" d="M71.2,136.3c-3-1.3-5.8-2.8-8.4-4.6c-1.3-0.9-2.6-1.8-3.8-2.8c-6.1-5-11-11.5-14.1-18.9
	c-1.3-3-2.2-6.1-2.9-9.3c-0.7-3.2-1-6.6-1-10H22.2c0,37.7,30.5,68.2,68.2,68.2v-18.8C83.6,140.2,77.1,138.8,71.2,136.3z"/>
</svg>
